# xmcd
# Track frame offsets:
# 150
# 41599
# 75784
# 90712
# 95963
# 111456
# 134664
# 158346
# 197226
# 215727
# 223629
# 249173
#
# Disc length: 3615 seconds
# Revision: 0
# Processed by: cddbd v1.5.2PL0 Copyright (c) Steve Scherf et al.
# Submitted via: VisiTrax 2.11.1.266 - For more info visit www.synapsa.com
#
DISCID=a70e1d0c
DTITLE=Mason Rack Band - Live In Canada
DYEAR=2010
DGENRE=
TTITLE0=Slide Intro - La Grange
TTITLE1=C.C. Rider
TTITLE2=Deep Wholly Woman
TTITLE3=Talk
TTITLE4=Cave Days
TTITLE5=Black And Blue
TTITLE6=Dead Of Night
TTITLE7=Jet Plane
TTITLE8=Beast
TTITLE9=Talk Cabin Fever
TTITLE10=Do A Little
TTITLE11=Slap Me
EXTD=
EXTT0=
EXTT1=
EXTT2=
EXTT3=
EXTT4=
EXTT5=
EXTT6=
EXTT7=
EXTT8=
EXTT9=
EXTT10=
EXTT11=
PLAYORDER=
